<svg width="150" height="159" viewBox="0 0 150 159" fill="none" xmlns="http://www.w3.org/2000/svg">
<path d="M24.8507 23.8671C24.8284 21.7191 24.8283 19.3764 25.45 17.249C25.4535 17.2373 25.4561 17.2191 25.4621 17.2084C25.4721 17.1902 25.481 17.1775 25.4874 17.1577C25.6185 16.7544 25.7506 16.3515 25.9254 15.9694C26.2836 15.1427 26.7761 14.3594 27.4477 13.6632C30.6492 10.1822 35.8209 9.83406 40.4328 9.76879C40.7239 9.76879 44.2164 9.76879 45.694 9.74703L89.0597 9.18136C92.2164 9.13785 96.5149 9.09433 99.7164 11.4658C102.272 13.3582 102.843 16.1436 102.961 18.5598C102.981 18.9694 103.314 19.2982 103.724 19.2982C106.746 19.32 109.187 21.7567 109.164 24.6938L108.918 52.4336C108.895 54.5875 108.851 56.7196 108.806 58.8518C108.649 66.8582 108.493 74.4295 109.634 82.2402C110.439 87.7708 111.785 94.6531 114.955 100.806C115.622 102.1 117.008 102.835 118.461 102.752C120.512 102.635 122.546 102.473 124.522 102.3C126.537 102.126 128.575 101.952 130.634 101.843C131.888 101.756 133.052 102.256 133.858 103.192C134.664 104.127 134.955 105.346 134.664 106.542C133.746 110.176 132.336 114.266 128.709 117.051C124.321 120.423 118.209 120.945 113.395 121.032C112.501 121.047 110.513 121.114 107.804 121.211C105.564 121.291 103.917 123.202 103.781 125.439C103.594 128.509 102.653 131.172 99.4925 132.868C96.8731 134.282 93.8059 134.391 91.2089 134.391C90.9851 134.391 90.7388 134.391 90.5149 134.391L49.6567 134.239C48.1567 134.239 44.6418 134.26 44.3955 134.26C38.3283 134.239 31.5448 133.825 27.4925 129.169C24.3134 125.492 24.0448 120.597 24.0671 115.506C24.0671 109.24 24.0671 102.974 24.0671 96.7301C24.0448 73.8421 24 50.1491 24.8283 26.2168C24.8731 25.4553 24.8731 24.6721 24.8507 23.8671ZM106.858 82.6536C105.672 74.6254 105.851 66.5972 106.007 58.83C106.052 56.6979 106.097 54.5657 106.119 52.4336L106.343 24.6721C106.366 23.2362 105.179 22.0613 103.701 22.0395C85.8582 21.8437 55.1865 21.6914 43.9701 21.9525C43.2537 21.9743 42.5821 22.2571 42.0895 22.7575C41.597 23.2579 41.3283 23.9324 41.3507 24.6286C41.6194 34.5061 41.7761 44.8405 41.9104 54.8486C42.0895 68.5988 42.291 82.8276 42.8283 96.2297L42.8507 96.8171C43.3433 109.501 44.8657 117.073 47.3507 119.335C48.2239 120.118 49.0298 120.51 49.7686 120.532C49.9186 120.532 50.1299 120.532 50.3832 120.475C50.4063 120.47 50.4302 120.466 50.4515 120.456C50.4727 120.445 50.4963 120.442 50.5192 120.436C51.3243 120.228 52.4908 119.471 53.4179 116.746C54.291 114.179 54.7164 111.481 54.6716 108.762C54.6268 106.194 56.7537 104.062 59.4179 103.997C68.0597 103.801 76.9701 103.649 85.5671 103.496C92.3918 103.381 99.3967 103.265 106.328 103.122C109.331 103.059 111.244 99.7865 110.216 96.9638C108.403 91.9797 107.478 86.9164 106.858 82.6536ZM126.963 114.919C129.895 112.656 131.127 109.11 131.91 105.911C132 105.585 131.91 105.237 131.687 104.976C131.552 104.824 131.261 104.584 130.791 104.606C128.776 104.737 126.761 104.889 124.769 105.063C121.724 105.324 118.545 105.585 115.343 105.672C105.537 105.933 95.3955 106.085 85.6119 106.26C77.0149 106.39 68.1045 106.542 59.4851 106.76C58.3657 106.782 57.4925 107.674 57.4925 108.74C57.5373 111.786 57.0671 114.766 56.0821 117.638C55.6572 118.853 56.524 120.317 57.8101 120.281C66.5177 120.039 81.4498 119.477 93.2462 119.052C102.851 118.704 111.157 118.4 113.328 118.356C117.716 118.247 123.246 117.791 126.963 114.919ZM49.6791 131.519L90.5373 131.671C93.0671 131.671 95.9104 131.693 98.1268 130.496C100.12 129.424 100.811 127.84 100.963 125.411C101.098 123.236 99.1591 121.552 96.9811 121.632C95.8005 121.675 94.5891 121.721 93.3582 121.772C76.8134 122.381 50.2388 123.273 49.8134 123.273C49.791 123.273 49.7462 123.273 49.7239 123.273C48.2686 123.251 46.8134 122.599 45.4254 121.359C41.3507 117.682 40.388 106.39 40.0298 96.9477L40.0074 96.3602C39.4701 82.9146 39.2686 68.6858 39.0671 54.8921C38.9328 44.9058 38.7761 34.5714 38.5074 24.7156C38.4627 23.2797 39 21.909 40.0298 20.8864C41.0373 19.8421 42.403 19.2764 43.8806 19.2329C53.6479 19.0314 78.0518 19.1099 95.9912 19.2609C98.2602 19.28 100.39 17.2698 99.3474 15.2542C99.0363 14.6526 98.6069 14.124 98.0149 13.685C95.7537 12.0097 92.6418 11.9009 89.1045 11.9662L45.7164 12.5101C42.1791 12.5536 37.388 12.6842 34.8134 15.4908C33.3806 17.0355 33.0448 19.1459 32.9552 21.4739C32.9328 22.2571 32.9328 23.0403 32.9328 23.8671C32.9328 24.6938 32.9328 25.5206 32.9104 26.3256C32.0821 50.2144 32.1269 73.8856 32.1492 96.7519C32.1492 103.018 32.1716 109.262 32.1492 115.55C32.1492 116.115 32.1492 116.681 32.1716 117.247C32.2388 121.185 32.6865 124.84 34.9254 127.45C34.9477 127.472 34.9477 127.472 34.9701 127.494C38.4851 131.497 44.6865 131.497 49.6791 131.519Z" fill="#444444"/>
<path d="M49.5672 47.56C49.5896 48.5825 49.612 50.6929 51.2687 51.846C52.1195 52.4335 53.0821 52.5422 53.8881 52.5422C54.1568 52.5422 54.3806 52.5205 54.6045 52.5205L60.0672 52.2812C61.0299 52.2376 62.5075 52.1724 63.6269 51.1933C64.9254 50.0402 64.9702 48.3215 64.9926 47.2771L65.1269 42.1208C65.1493 41.3811 65.1717 40.5543 64.9702 39.7058C64.7015 38.5962 64.0971 37.6824 63.2463 37.1385C62.3732 36.5729 61.3881 36.4858 60.5374 36.4206C59.2612 36.3335 57.9627 36.3118 56.6642 36.3335C56.418 36.3335 56.1493 36.3335 55.8806 36.3118C54.6717 36.29 53.1717 36.2248 51.9627 37.0298C49.4553 38.6833 49.5001 41.4899 49.5001 42.8605L49.5672 47.56Z" fill="#444444"/>
<path d="M70.2312 42.1427L95.9775 41.7945C96.7611 41.7945 97.3879 41.1636 97.3656 40.4021C97.3656 39.6406 96.6715 38.9879 95.9327 39.0532L70.2088 39.4013C69.4253 39.4013 68.7984 40.0323 68.8208 40.7937C68.8432 41.5335 69.47 42.1427 70.2312 42.1427Z" fill="#444444"/>
<path d="M69.403 48.6044C69.4254 48.6044 69.4254 48.6044 69.4478 48.6044L87.8284 48.0605C88.6119 48.0387 89.2164 47.4078 89.194 46.6463C89.1716 45.8848 88.5 45.3192 87.7388 45.3192L69.3582 45.8631C68.5746 45.8848 67.9702 46.5158 67.9925 47.2773C68.0149 48.017 68.6418 48.6044 69.403 48.6044Z" fill="#444444"/>
<path d="M49.4555 68.1853C49.4779 69.2079 49.5003 71.3183 51.157 72.4714C52.0077 73.0588 52.9704 73.1676 53.7764 73.1676C54.0227 73.1676 54.2689 73.1676 54.4704 73.1459L59.9107 72.9065C60.8734 72.863 62.351 72.7978 63.4704 71.8187C64.7689 70.6656 64.8137 68.9468 64.8361 67.9025L64.9704 62.7462C64.9928 62.0065 65.0152 61.1797 64.8137 60.3312C64.5451 59.2216 63.9406 58.3078 63.0898 57.7639C62.2167 57.1982 61.2316 57.1112 60.3809 57.0459C59.1048 56.9589 57.8062 56.9372 56.5077 56.9589C56.2615 56.9589 55.9928 56.9589 55.7242 56.9589C54.5152 56.9154 53.0152 56.8719 51.8062 57.6769C49.2988 59.3304 49.3436 62.137 49.3436 63.5077L49.4555 68.1853Z" fill="#444444"/>
<path d="M95.8432 59.6566L70.1193 60.0047C69.3357 60.0047 68.7088 60.6357 68.7312 61.3971C68.7312 62.1369 69.3805 62.7461 70.1417 62.7461H70.1641L95.8879 62.398C96.6715 62.398 97.2984 61.767 97.276 61.0055C97.2536 60.244 96.6044 59.6566 95.8432 59.6566Z" fill="#444444"/>
<path d="M69.3134 69.2079C69.3358 69.2079 69.3358 69.2079 69.3582 69.2079L87.7388 68.664C88.5224 68.6423 89.1269 68.0113 89.1045 67.2498C89.0821 66.4883 88.3881 65.9227 87.6492 65.9227L69.2686 66.4666C68.4851 66.4883 67.8806 67.1193 67.903 67.8808C67.9254 68.6205 68.5522 69.2079 69.3134 69.2079Z" fill="#444444"/>
<path d="M64.8806 83.328C64.903 82.5882 64.9254 81.7615 64.7239 80.913C64.4552 79.8034 63.8507 78.8896 63 78.3457C62.1268 77.78 61.1418 77.693 60.291 77.6277C59.0149 77.5407 57.7164 77.5189 56.4179 77.5407C56.1716 77.5407 55.903 77.5407 55.6343 77.5189C54.4254 77.4972 52.9254 77.4319 51.7164 78.2369C49.2089 79.8904 49.2537 82.697 49.2537 84.0677L49.3209 88.7889C49.3433 89.8114 49.3657 91.9218 51.0224 93.0749C51.8731 93.6624 52.8358 93.7711 53.6418 93.7711C53.9104 93.7711 54.1343 93.7494 54.3582 93.7494L59.8209 93.5101C60.7836 93.4666 62.2612 93.4013 63.3582 92.4222C64.6567 91.2691 64.7015 89.5504 64.7239 88.506L64.8806 83.328Z" fill="#444444"/>
<path d="M95.7539 80.2603L70.03 80.6084C69.2464 80.6084 68.6196 81.2393 68.6419 82.0008C68.6419 82.7623 69.2912 83.3497 70.0524 83.3497H70.0748L95.7987 83.0016C96.5822 83.0016 97.2091 82.3706 97.1867 81.6092C97.1643 80.8694 96.5151 80.3255 95.7539 80.2603Z" fill="#444444"/>
<path d="M69.2016 89.8332C69.224 89.8332 69.224 89.8332 69.2464 89.8332L87.6269 89.2893C88.4105 89.2675 89.015 88.6365 88.9926 87.8751C88.9702 87.1136 88.321 86.5044 87.5374 86.5479L69.1568 87.0918C68.3732 87.1136 67.7687 87.7445 67.7911 88.506C67.8135 89.2457 68.4404 89.8332 69.2016 89.8332Z" fill="#444444"/>
<path d="M54.0552 49.0484C53.4241 49.0484 52.9126 48.5368 52.9126 47.9058V42.1524C52.9126 41.4139 53.5113 40.8152 54.2498 40.8152C54.7767 40.8152 55.2544 41.1246 55.47 41.6054L57.542 46.2273C57.5803 46.3127 57.5179 46.4091 57.4243 46.4091C57.3308 46.4091 57.2683 46.3127 57.3066 46.2273L59.3787 41.6054C59.5942 41.1246 60.072 40.8152 60.5988 40.8152C61.3374 40.8152 61.936 41.4139 61.936 42.1524V47.9058C61.936 48.5368 61.4245 49.0484 60.7935 49.0484C60.1624 49.0484 59.6509 48.5368 59.6509 47.9058V44.8169C59.6509 44.6966 59.7485 44.599 59.8688 44.599C60.0289 44.599 60.1343 44.7657 60.0658 44.9103L58.4027 48.4183C58.2203 48.8031 57.8326 49.0484 57.4067 49.0484C56.9809 49.0484 56.5932 48.8031 56.4108 48.4183L54.7569 44.9298C54.6841 44.7761 54.7961 44.599 54.9662 44.599C55.0941 44.599 55.1978 44.7027 55.1978 44.8306V47.9058C55.1978 48.5368 54.6862 49.0484 54.0552 49.0484Z" fill="white"/>
<path d="M57.2498 69.391C56.5937 69.391 56.0618 68.8591 56.0618 68.203V62.824C56.0618 62.1679 56.5937 61.636 57.2498 61.636C57.9059 61.636 58.4378 62.1679 58.4378 62.824V68.203C58.4378 68.8591 57.9059 69.391 57.2498 69.391Z" fill="white"/>
<path d="M54.7558 90C54.1422 90 53.6448 89.5026 53.6448 88.889V83.427C53.6448 82.7742 54.174 82.245 54.8269 82.245C55.179 82.245 55.5128 82.402 55.7374 82.6733L58.8319 86.4114C58.8908 86.4825 58.8402 86.59 58.7479 86.59C58.6877 86.59 58.6388 86.5412 58.6388 86.4809V83.3505C58.6388 82.7399 59.1338 82.245 59.7443 82.245C60.3549 82.245 60.8498 82.7399 60.8498 83.3505V88.8187C60.8498 89.4711 60.321 90 59.6685 90C59.316 90 58.9819 89.8425 58.7575 89.5706L55.6734 85.8338C55.6146 85.7625 55.6652 85.655 55.7576 85.655C55.8179 85.655 55.8668 85.7039 55.8668 85.7642V88.889C55.8668 89.5026 55.3694 90 54.7558 90Z" fill="white"/>
</svg>
