<svg width="26" height="26" viewBox="0 0 26 26" fill="none" xmlns="http://www.w3.org/2000/svg">
<path d="M5.6875 5.6875L6.70312 21.9375C6.75137 22.8764 7.43437 23.5625 8.32812 23.5625H17.6719C18.5692 23.5625 19.2395 22.8764 19.2969 21.9375L20.3125 5.6875" stroke="#444444" stroke-width="1.6" stroke-linecap="round" stroke-linejoin="round"/>
<path d="M4.0625 5.6875H21.9375Z" fill="#444444"/>
<path d="M4.0625 5.6875H21.9375" stroke="#444444" stroke-width="1.6" stroke-miterlimit="10" stroke-linecap="round"/>
<path d="M9.75 5.6875V3.65626C9.74953 3.49608 9.78073 3.33738 9.84182 3.18931C9.9029 3.04123 9.99265 2.90669 10.1059 2.79342C10.2192 2.68016 10.3537 2.5904 10.5018 2.52932C10.6499 2.46824 10.8086 2.43704 10.9688 2.43751H15.0312C15.1914 2.43704 15.3501 2.46824 15.4982 2.52932C15.6463 2.5904 15.7808 2.68016 15.8941 2.79342C16.0073 2.90669 16.0971 3.04123 16.1582 3.18931C16.2193 3.33738 16.2505 3.49608 16.25 3.65626V5.6875M13 8.9375V20.3125M9.34375 8.9375L9.75 20.3125M16.6562 8.9375L16.25 20.3125" stroke="#444444" stroke-width="1.6" stroke-linecap="round" stroke-linejoin="round"/>
</svg>
